# xmcd
#
# Track frame offsets: 
#        150
#        26830
#        49345
#        75267
#        98112
#        117880
#        136950
#        156387
#        176140
#        191402
#        210822
#        256612
#        280607
#
# Disc length: 4259 seconds
#
# Revision: 2
# Processed by: cddbd v1.5.2PL0 Copyright (c) Steve Scherf et al.
# Submitted via: ExactAudioCopyFreeDBPlugin 1.0
#
DISCID=a410a10d
DTITLE=John Mayer - Where The Light Is: Live In Los Angeles
DYEAR=2008
DGENRE=Blues
TTITLE0=Neon
TTITLE1=Stop This Train
TTITLE2=In Your Atmosphere
TTITLE3=Daughters
TTITLE4=Free Fallin'
TTITLE5=Everyday I Have the Blues
TTITLE6=Wait Until Tomorrow
TTITLE7=Who Did You Think I Was
TTITLE8=Come When I Call
TTITLE9=Good Love Is on the Way
TTITLE10=Out Of My Mind
TTITLE11=Vultures
TTITLE12=Bold As Love
EXTD=
EXTT0=
EXTT1=
EXTT2=
EXTT3=
EXTT4=
EXTT5=
EXTT6=
EXTT7=
EXTT8=
EXTT9=
EXTT10=
EXTT11=
EXTT12=
PLAYORDER=
